<svg xmlns="http://www.w3.org/2000/svg" viewBox="0 0 1500 1500" id="blood-drop-medical-cross-symbol">
  <defs>
    <clipPath id="a">
      <path fill="#ff6b73" d="m1121.74,891.54c0-243.28-392.3-736.66-440.5-736.66-34.75,0-440.5,493.38-440.5,736.66s197.22,440.5,440.5,440.5,440.5-197.22,440.5-440.5Z"></path>
    </clipPath>
    <clipPath id="b">
      <path fill="#ff6b73" d="m1337.99,1159.98c0-95.03-153.23-287.74-172.06-287.74-13.57,0-172.06,192.71-172.06,287.74s77.03,172.06,172.06,172.06,172.06-77.03,172.06-172.06Z"></path>
    </clipPath>
  </defs>
  <g>
    <g>
      <path fill="#ff6b73" d="m1121.74,891.54c0-243.28-392.3-736.66-440.5-736.66-34.75,0-440.5,493.38-440.5,736.66s197.22,440.5,440.5,440.5,440.5-197.22,440.5-440.5Z"></path>
      <g fill="none" clip-path="url(#a)">
        <path fill="#ef5268" d="m681.24,68.6c370.47,582.09,501.82,1085.46,0,1380.41l496.17-161.75-6.64-770.69L681.24,68.6Z"></path>
      </g>
    </g>
    <path fill="#fff" d="m773.18,684.23v88.87h82.86c43.11,0,78.06,34.95,78.06,78.06h0c0,43.11-34.95,78.06-78.06,78.06h-82.86v88.87c0,43.11-34.95,78.06-78.06,78.06h-12.01c-43.11,0-78.06-34.95-78.06-78.06v-88.87h-82.87c-43.11,0-78.06-34.95-78.06-78.06h0c0-43.11,34.95-78.06,78.06-78.06h82.87v-88.87c0-43.11,34.95-78.06,78.06-78.06h12.01c43.11,0,78.06,34.95,78.06,78.06Z"></path>
  </g>
  <g>
    <path fill="#ff6b73" d="m1337.99,1159.98c0-95.03-153.23-287.74-172.06-287.74-13.57,0-172.06,192.71-172.06,287.74s77.03,172.06,172.06,172.06,172.06-77.03,172.06-172.06Z"></path>
    <g fill="none" clip-path="url(#b)">
      <path fill="#ef5268" d="m1165.93,838.54c144.71,227.36,196.01,423.98,0,539.18l193.81-63.18-2.59-301.03-191.21-174.98Z"></path>
    </g>
  </g>
</svg>
